<mxfile host="app.diagrams.net" agent="Mozilla/5.0 (Windows NT 10.0; Win64; x64) AppleWebKit/537.36 (KHTML, like Gecko) Chrome/129.0.0.0 Safari/537.36" version="24.7.16">
  <diagram name="第 1 页" id="jt-IvlvZHhjQXxlfocLM">
    <mxGraphModel dx="4412" dy="1865" grid="1" gridSize="10" guides="1" tooltips="1" connect="1" arrows="1" fold="1" page="1" pageScale="1" pageWidth="827" pageHeight="1169" math="0" shadow="0">
      <root>
        <mxCell id="0" />
        <mxCell id="1" parent="0" />
        <mxCell id="fn9Ds6wR3YaCidn1l6WM-94" value="" style="endArrow=none;dashed=1;html=1;rounded=0;" edge="1" parent="1">
          <mxGeometry width="50" height="50" relative="1" as="geometry">
            <mxPoint x="-310" y="760" as="sourcePoint" />
            <mxPoint x="20" y="760" as="targetPoint" />
          </mxGeometry>
        </mxCell>
        <mxCell id="fn9Ds6wR3YaCidn1l6WM-4" value="" style="edgeStyle=orthogonalEdgeStyle;rounded=0;orthogonalLoop=1;jettySize=auto;html=1;" edge="1" parent="1" source="fn9Ds6wR3YaCidn1l6WM-1" target="fn9Ds6wR3YaCidn1l6WM-3">
          <mxGeometry relative="1" as="geometry" />
        </mxCell>
        <mxCell id="fn9Ds6wR3YaCidn1l6WM-1" value="National Health and Nutrition Examination Survey (2001-2004)&amp;nbsp;&lt;div&gt;(N = 21161)&lt;/div&gt;" style="ellipse;whiteSpace=wrap;html=1;" vertex="1" parent="1">
          <mxGeometry x="50" y="30" width="220" height="70" as="geometry" />
        </mxCell>
        <mxCell id="fn9Ds6wR3YaCidn1l6WM-9" value="" style="edgeStyle=orthogonalEdgeStyle;rounded=0;orthogonalLoop=1;jettySize=auto;html=1;" edge="1" parent="1" source="fn9Ds6wR3YaCidn1l6WM-2" target="fn9Ds6wR3YaCidn1l6WM-8">
          <mxGeometry relative="1" as="geometry" />
        </mxCell>
        <mxCell id="fn9Ds6wR3YaCidn1l6WM-2" value="≥20 Years&lt;div&gt;（N = 5152）&lt;/div&gt;" style="rounded=1;whiteSpace=wrap;html=1;" vertex="1" parent="1">
          <mxGeometry x="40" y="210" width="240" height="50" as="geometry" />
        </mxCell>
        <mxCell id="fn9Ds6wR3YaCidn1l6WM-5" value="" style="edgeStyle=orthogonalEdgeStyle;rounded=0;orthogonalLoop=1;jettySize=auto;html=1;" edge="1" parent="1" source="fn9Ds6wR3YaCidn1l6WM-3" target="fn9Ds6wR3YaCidn1l6WM-2">
          <mxGeometry relative="1" as="geometry" />
        </mxCell>
        <mxCell id="fn9Ds6wR3YaCidn1l6WM-3" value="Gender:Male&lt;div&gt;(N = 10301)&lt;/div&gt;" style="rounded=1;whiteSpace=wrap;html=1;" vertex="1" parent="1">
          <mxGeometry x="42.5" y="130" width="235" height="50" as="geometry" />
        </mxCell>
        <mxCell id="fn9Ds6wR3YaCidn1l6WM-11" value="" style="edgeStyle=orthogonalEdgeStyle;rounded=0;orthogonalLoop=1;jettySize=auto;html=1;" edge="1" parent="1" source="fn9Ds6wR3YaCidn1l6WM-8" target="fn9Ds6wR3YaCidn1l6WM-10">
          <mxGeometry relative="1" as="geometry" />
        </mxCell>
        <mxCell id="fn9Ds6wR3YaCidn1l6WM-8" value="Participants&amp;nbsp;&lt;div&gt;（N = 4911）&lt;/div&gt;" style="whiteSpace=wrap;html=1;rounded=1;" vertex="1" parent="1">
          <mxGeometry x="40" y="290" width="240" height="50" as="geometry" />
        </mxCell>
        <mxCell id="fn9Ds6wR3YaCidn1l6WM-28" value="" style="edgeStyle=orthogonalEdgeStyle;rounded=0;orthogonalLoop=1;jettySize=auto;html=1;" edge="1" parent="1" source="fn9Ds6wR3YaCidn1l6WM-10" target="fn9Ds6wR3YaCidn1l6WM-22">
          <mxGeometry relative="1" as="geometry" />
        </mxCell>
        <mxCell id="fn9Ds6wR3YaCidn1l6WM-10" value="&lt;div&gt;&lt;br&gt;&lt;/div&gt;Participants with ED data&lt;div&gt;(N = 3980)&lt;/div&gt;" style="strokeWidth=2;html=1;shape=mxgraph.flowchart.database;whiteSpace=wrap;" vertex="1" parent="1">
          <mxGeometry x="40" y="370" width="240" height="60" as="geometry" />
        </mxCell>
        <mxCell id="fn9Ds6wR3YaCidn1l6WM-13" style="edgeStyle=orthogonalEdgeStyle;rounded=0;orthogonalLoop=1;jettySize=auto;html=1;" edge="1" parent="1" source="fn9Ds6wR3YaCidn1l6WM-12">
          <mxGeometry relative="1" as="geometry">
            <mxPoint x="160" y="115" as="targetPoint" />
          </mxGeometry>
        </mxCell>
        <mxCell id="fn9Ds6wR3YaCidn1l6WM-12" value="Excluded : Gender(Female)&lt;div&gt;(N = 10860)&lt;/div&gt;" style="rounded=1;whiteSpace=wrap;html=1;" vertex="1" parent="1">
          <mxGeometry x="320" y="90" width="230" height="50" as="geometry" />
        </mxCell>
        <mxCell id="fn9Ds6wR3YaCidn1l6WM-15" style="edgeStyle=orthogonalEdgeStyle;rounded=0;orthogonalLoop=1;jettySize=auto;html=1;" edge="1" parent="1" source="fn9Ds6wR3YaCidn1l6WM-16">
          <mxGeometry relative="1" as="geometry">
            <mxPoint x="160" y="195" as="targetPoint" />
          </mxGeometry>
        </mxCell>
        <mxCell id="fn9Ds6wR3YaCidn1l6WM-16" value="Excluded : Younger than 20 years&lt;div&gt;(N = 5149)&lt;/div&gt;" style="rounded=1;whiteSpace=wrap;html=1;" vertex="1" parent="1">
          <mxGeometry x="320" y="170" width="230" height="50" as="geometry" />
        </mxCell>
        <mxCell id="fn9Ds6wR3YaCidn1l6WM-17" style="edgeStyle=orthogonalEdgeStyle;rounded=0;orthogonalLoop=1;jettySize=auto;html=1;" edge="1" parent="1" source="fn9Ds6wR3YaCidn1l6WM-18">
          <mxGeometry relative="1" as="geometry">
            <mxPoint x="160" y="275" as="targetPoint" />
          </mxGeometry>
        </mxCell>
        <mxCell id="fn9Ds6wR3YaCidn1l6WM-18" value="Excluded : Answered &quot;Refused&quot; or &quot;Don&#39;t know&quot; in questionnaire (N = 241)" style="rounded=1;whiteSpace=wrap;html=1;" vertex="1" parent="1">
          <mxGeometry x="320" y="250" width="230" height="50" as="geometry" />
        </mxCell>
        <mxCell id="fn9Ds6wR3YaCidn1l6WM-19" style="edgeStyle=orthogonalEdgeStyle;rounded=0;orthogonalLoop=1;jettySize=auto;html=1;" edge="1" parent="1" source="fn9Ds6wR3YaCidn1l6WM-20">
          <mxGeometry relative="1" as="geometry">
            <mxPoint x="160" y="355" as="targetPoint" />
          </mxGeometry>
        </mxCell>
        <mxCell id="fn9Ds6wR3YaCidn1l6WM-20" value="Excluded : Participants missing ED data&amp;nbsp;&lt;div&gt;(N = 931)&lt;/div&gt;" style="rounded=1;whiteSpace=wrap;html=1;" vertex="1" parent="1">
          <mxGeometry x="320" y="330" width="230" height="50" as="geometry" />
        </mxCell>
        <mxCell id="fn9Ds6wR3YaCidn1l6WM-25" value="" style="edgeStyle=orthogonalEdgeStyle;rounded=0;orthogonalLoop=1;jettySize=auto;html=1;" edge="1" parent="1" source="fn9Ds6wR3YaCidn1l6WM-22" target="fn9Ds6wR3YaCidn1l6WM-24">
          <mxGeometry relative="1" as="geometry" />
        </mxCell>
        <mxCell id="fn9Ds6wR3YaCidn1l6WM-30" value="" style="edgeStyle=orthogonalEdgeStyle;rounded=0;orthogonalLoop=1;jettySize=auto;html=1;" edge="1" parent="1" source="fn9Ds6wR3YaCidn1l6WM-22" target="fn9Ds6wR3YaCidn1l6WM-29">
          <mxGeometry relative="1" as="geometry" />
        </mxCell>
        <mxCell id="fn9Ds6wR3YaCidn1l6WM-22" value="Normal distribution" style="rhombus;whiteSpace=wrap;html=1;strokeWidth=2;" vertex="1" parent="1">
          <mxGeometry x="55" y="465" width="210" height="65" as="geometry" />
        </mxCell>
        <mxCell id="fn9Ds6wR3YaCidn1l6WM-24" value="Logarithmic&lt;div&gt;Transformation&lt;/div&gt;" style="whiteSpace=wrap;html=1;strokeWidth=2;" vertex="1" parent="1">
          <mxGeometry x="395" y="467.5" width="120" height="60" as="geometry" />
        </mxCell>
        <mxCell id="fn9Ds6wR3YaCidn1l6WM-29" value="Stratified by 7:3 ratio" style="rounded=1;whiteSpace=wrap;html=1;strokeWidth=2;" vertex="1" parent="1">
          <mxGeometry x="100" y="560" width="120" height="60" as="geometry" />
        </mxCell>
        <mxCell id="fn9Ds6wR3YaCidn1l6WM-96" style="edgeStyle=orthogonalEdgeStyle;rounded=0;orthogonalLoop=1;jettySize=auto;html=1;exitX=0.5;exitY=1;exitDx=0;exitDy=0;exitPerimeter=0;entryX=0.5;entryY=0;entryDx=0;entryDy=0;" edge="1" parent="1" source="fn9Ds6wR3YaCidn1l6WM-31" target="fn9Ds6wR3YaCidn1l6WM-33">
          <mxGeometry relative="1" as="geometry" />
        </mxCell>
        <mxCell id="fn9Ds6wR3YaCidn1l6WM-31" value="&lt;div&gt;&lt;br&gt;&lt;/div&gt;Train Set" style="strokeWidth=2;html=1;shape=mxgraph.flowchart.database;whiteSpace=wrap;" vertex="1" parent="1">
          <mxGeometry x="-212.87" y="640" width="150" height="60" as="geometry" />
        </mxCell>
        <mxCell id="fn9Ds6wR3YaCidn1l6WM-148" style="edgeStyle=orthogonalEdgeStyle;rounded=0;orthogonalLoop=1;jettySize=auto;html=1;exitX=0.5;exitY=1;exitDx=0;exitDy=0;exitPerimeter=0;entryX=0.5;entryY=0;entryDx=0;entryDy=0;" edge="1" parent="1" source="fn9Ds6wR3YaCidn1l6WM-32" target="fn9Ds6wR3YaCidn1l6WM-143">
          <mxGeometry relative="1" as="geometry" />
        </mxCell>
        <mxCell id="fn9Ds6wR3YaCidn1l6WM-32" value="&lt;div&gt;&lt;br&gt;&lt;/div&gt;Test Set" style="strokeWidth=2;html=1;shape=mxgraph.flowchart.database;whiteSpace=wrap;" vertex="1" parent="1">
          <mxGeometry x="470" y="630" width="150" height="60" as="geometry" />
        </mxCell>
        <mxCell id="fn9Ds6wR3YaCidn1l6WM-33" value="Features selection" style="whiteSpace=wrap;html=1;strokeWidth=2;" vertex="1" parent="1">
          <mxGeometry x="-194.75" y="740" width="113.75" height="50" as="geometry" />
        </mxCell>
        <mxCell id="fn9Ds6wR3YaCidn1l6WM-36" value="CatBoost" style="shape=cube;whiteSpace=wrap;html=1;boundedLbl=1;backgroundOutline=1;darkOpacity=0.05;darkOpacity2=0.1;" vertex="1" parent="1">
          <mxGeometry x="203.78" y="767.78" width="92" height="60" as="geometry" />
        </mxCell>
        <mxCell id="fn9Ds6wR3YaCidn1l6WM-37" value="LightGBM" style="shape=cube;whiteSpace=wrap;html=1;boundedLbl=1;backgroundOutline=1;darkOpacity=0.05;darkOpacity2=0.1;" vertex="1" parent="1">
          <mxGeometry x="139.78" y="697.78" width="92" height="60" as="geometry" />
        </mxCell>
        <mxCell id="fn9Ds6wR3YaCidn1l6WM-35" value="XGBoost" style="shape=cube;whiteSpace=wrap;html=1;boundedLbl=1;backgroundOutline=1;darkOpacity=0.05;darkOpacity2=0.1;" vertex="1" parent="1">
          <mxGeometry x="90.78" y="767.78" width="92" height="60" as="geometry" />
        </mxCell>
        <mxCell id="fn9Ds6wR3YaCidn1l6WM-81" value="" style="endArrow=none;dashed=1;html=1;rounded=0;" edge="1" parent="1" source="fn9Ds6wR3YaCidn1l6WM-78">
          <mxGeometry width="50" height="50" relative="1" as="geometry">
            <mxPoint x="65.78" y="677.78" as="sourcePoint" />
            <mxPoint x="305.78" y="677.78" as="targetPoint" />
          </mxGeometry>
        </mxCell>
        <mxCell id="fn9Ds6wR3YaCidn1l6WM-79" value="" style="endArrow=none;dashed=1;html=1;rounded=0;" edge="1" parent="1">
          <mxGeometry width="50" height="50" relative="1" as="geometry">
            <mxPoint x="65.78" y="837.78" as="sourcePoint" />
            <mxPoint x="65.78" y="677.78" as="targetPoint" />
          </mxGeometry>
        </mxCell>
        <mxCell id="fn9Ds6wR3YaCidn1l6WM-80" value="" style="endArrow=none;dashed=1;html=1;rounded=0;" edge="1" parent="1">
          <mxGeometry width="50" height="50" relative="1" as="geometry">
            <mxPoint x="305.78" y="837.78" as="sourcePoint" />
            <mxPoint x="305.78" y="677.78" as="targetPoint" />
          </mxGeometry>
        </mxCell>
        <mxCell id="fn9Ds6wR3YaCidn1l6WM-82" value="" style="endArrow=none;dashed=1;html=1;rounded=0;" edge="1" parent="1">
          <mxGeometry width="50" height="50" relative="1" as="geometry">
            <mxPoint x="65.78" y="837.78" as="sourcePoint" />
            <mxPoint x="305.78" y="837.78" as="targetPoint" />
          </mxGeometry>
        </mxCell>
        <mxCell id="fn9Ds6wR3YaCidn1l6WM-88" style="edgeStyle=orthogonalEdgeStyle;rounded=0;orthogonalLoop=1;jettySize=auto;html=1;entryX=0.5;entryY=0;entryDx=0;entryDy=0;" edge="1" parent="1" source="fn9Ds6wR3YaCidn1l6WM-83" target="fn9Ds6wR3YaCidn1l6WM-84">
          <mxGeometry relative="1" as="geometry" />
        </mxCell>
        <mxCell id="fn9Ds6wR3YaCidn1l6WM-83" value="Evaluate the feature importance of models" style="rounded=1;whiteSpace=wrap;html=1;" vertex="1" parent="1">
          <mxGeometry x="-197.87" y="810" width="120" height="50" as="geometry" />
        </mxCell>
        <mxCell id="fn9Ds6wR3YaCidn1l6WM-90" value="" style="edgeStyle=orthogonalEdgeStyle;rounded=0;orthogonalLoop=1;jettySize=auto;html=1;" edge="1" parent="1" source="fn9Ds6wR3YaCidn1l6WM-84" target="fn9Ds6wR3YaCidn1l6WM-85">
          <mxGeometry relative="1" as="geometry" />
        </mxCell>
        <mxCell id="fn9Ds6wR3YaCidn1l6WM-84" value="Select the top 30 features&amp;nbsp;" style="rounded=1;whiteSpace=wrap;html=1;" vertex="1" parent="1">
          <mxGeometry x="-270" y="890" width="120" height="50" as="geometry" />
        </mxCell>
        <mxCell id="fn9Ds6wR3YaCidn1l6WM-85" value="Take the intersection of selected features&amp;nbsp;" style="rounded=1;whiteSpace=wrap;html=1;" vertex="1" parent="1">
          <mxGeometry x="-130" y="890" width="120" height="50" as="geometry" />
        </mxCell>
        <mxCell id="fn9Ds6wR3YaCidn1l6WM-91" value="" style="endArrow=none;dashed=1;html=1;rounded=0;" edge="1" parent="1">
          <mxGeometry width="50" height="50" relative="1" as="geometry">
            <mxPoint x="-310" y="960" as="sourcePoint" />
            <mxPoint x="-310" y="760" as="targetPoint" />
          </mxGeometry>
        </mxCell>
        <mxCell id="fn9Ds6wR3YaCidn1l6WM-92" value="" style="endArrow=none;dashed=1;html=1;rounded=0;" edge="1" parent="1">
          <mxGeometry width="50" height="50" relative="1" as="geometry">
            <mxPoint x="20" y="960" as="sourcePoint" />
            <mxPoint x="20" y="760" as="targetPoint" />
          </mxGeometry>
        </mxCell>
        <mxCell id="fn9Ds6wR3YaCidn1l6WM-93" value="" style="endArrow=none;dashed=1;html=1;rounded=0;" edge="1" parent="1">
          <mxGeometry width="50" height="50" relative="1" as="geometry">
            <mxPoint x="-310" y="960" as="sourcePoint" />
            <mxPoint x="20" y="960" as="targetPoint" />
          </mxGeometry>
        </mxCell>
        <mxCell id="fn9Ds6wR3YaCidn1l6WM-97" value="&lt;div&gt;&lt;br&gt;&lt;/div&gt;Selected Train Data" style="strokeWidth=2;html=1;shape=mxgraph.flowchart.database;whiteSpace=wrap;" vertex="1" parent="1">
          <mxGeometry x="-318.37" y="1042.5" width="150" height="60" as="geometry" />
        </mxCell>
        <mxCell id="fn9Ds6wR3YaCidn1l6WM-98" value="FOLD" style="shape=cylinder3;whiteSpace=wrap;html=1;boundedLbl=1;backgroundOutline=1;size=15;" vertex="1" parent="1">
          <mxGeometry x="-88.87" y="1022.5" width="41" height="50" as="geometry" />
        </mxCell>
        <mxCell id="fn9Ds6wR3YaCidn1l6WM-107" value="" style="shape=singleArrow;direction=south;whiteSpace=wrap;html=1;" vertex="1" parent="1">
          <mxGeometry x="-168.37" y="970" width="60" height="30" as="geometry" />
        </mxCell>
        <mxCell id="fn9Ds6wR3YaCidn1l6WM-108" value="" style="endArrow=classic;html=1;rounded=0;" edge="1" parent="1">
          <mxGeometry width="50" height="50" relative="1" as="geometry">
            <mxPoint x="-162.24" y="1072.5" as="sourcePoint" />
            <mxPoint x="-102.24000000000001" y="1072.5" as="targetPoint" />
          </mxGeometry>
        </mxCell>
        <mxCell id="fn9Ds6wR3YaCidn1l6WM-109" value="" style="endArrow=none;dashed=1;html=1;rounded=0;" edge="1" parent="1">
          <mxGeometry width="50" height="50" relative="1" as="geometry">
            <mxPoint x="-328.37" y="1152.5" as="sourcePoint" />
            <mxPoint x="-328.37" y="1007.5" as="targetPoint" />
            <Array as="points">
              <mxPoint x="-328.37" y="1077.5" />
            </Array>
          </mxGeometry>
        </mxCell>
        <mxCell id="fn9Ds6wR3YaCidn1l6WM-110" value="FOLD" style="shape=cylinder3;whiteSpace=wrap;html=1;boundedLbl=1;backgroundOutline=1;size=15;" vertex="1" parent="1">
          <mxGeometry x="-28.37" y="1022.5" width="41" height="50" as="geometry" />
        </mxCell>
        <mxCell id="fn9Ds6wR3YaCidn1l6WM-111" value="FOLD" style="shape=cylinder3;whiteSpace=wrap;html=1;boundedLbl=1;backgroundOutline=1;size=15;" vertex="1" parent="1">
          <mxGeometry x="-61.239999999999995" y="1082.5" width="41" height="50" as="geometry" />
        </mxCell>
        <mxCell id="fn9Ds6wR3YaCidn1l6WM-112" value="FOLD" style="shape=cylinder3;whiteSpace=wrap;html=1;boundedLbl=1;backgroundOutline=1;size=15;" vertex="1" parent="1">
          <mxGeometry x="-117.24000000000001" y="1082.5" width="41" height="50" as="geometry" />
        </mxCell>
        <mxCell id="fn9Ds6wR3YaCidn1l6WM-113" value="FOLD" style="shape=cylinder3;whiteSpace=wrap;html=1;boundedLbl=1;backgroundOutline=1;size=15;" vertex="1" parent="1">
          <mxGeometry x="-8.370000000000001" y="1082.5" width="41" height="50" as="geometry" />
        </mxCell>
        <mxCell id="fn9Ds6wR3YaCidn1l6WM-115" value="" style="endArrow=none;dashed=1;html=1;rounded=0;" edge="1" parent="1">
          <mxGeometry width="50" height="50" relative="1" as="geometry">
            <mxPoint x="-328.37" y="1002.5" as="sourcePoint" />
            <mxPoint x="51.63" y="1002.5" as="targetPoint" />
          </mxGeometry>
        </mxCell>
        <mxCell id="fn9Ds6wR3YaCidn1l6WM-116" value="" style="endArrow=none;dashed=1;html=1;rounded=0;" edge="1" parent="1">
          <mxGeometry width="50" height="50" relative="1" as="geometry">
            <mxPoint x="-328.37" y="1152.5" as="sourcePoint" />
            <mxPoint x="51.63" y="1152.5" as="targetPoint" />
          </mxGeometry>
        </mxCell>
        <mxCell id="fn9Ds6wR3YaCidn1l6WM-117" value="" style="endArrow=none;dashed=1;html=1;rounded=0;" edge="1" parent="1">
          <mxGeometry width="50" height="50" relative="1" as="geometry">
            <mxPoint x="51.63" y="1152.5" as="sourcePoint" />
            <mxPoint x="51.63" y="1000" as="targetPoint" />
            <Array as="points">
              <mxPoint x="51.63" y="1070" />
            </Array>
          </mxGeometry>
        </mxCell>
        <mxCell id="fn9Ds6wR3YaCidn1l6WM-126" style="edgeStyle=orthogonalEdgeStyle;rounded=0;orthogonalLoop=1;jettySize=auto;html=1;exitX=0.5;exitY=1;exitDx=0;exitDy=0;exitPerimeter=0;entryX=0.5;entryY=0;entryDx=0;entryDy=0;" edge="1" parent="1" source="fn9Ds6wR3YaCidn1l6WM-119" target="fn9Ds6wR3YaCidn1l6WM-123">
          <mxGeometry relative="1" as="geometry" />
        </mxCell>
        <mxCell id="fn9Ds6wR3YaCidn1l6WM-119" value="Split data into 5 folds with equal Positive/Negative ratio" style="verticalLabelPosition=middle;verticalAlign=middle;html=1;shape=card;whiteSpace=wrap;size=20;arcSize=12;horizontal=1;labelPosition=center;align=center;" vertex="1" parent="1">
          <mxGeometry x="-238.81" y="1140" width="201.87" height="50" as="geometry" />
        </mxCell>
        <mxCell id="fn9Ds6wR3YaCidn1l6WM-120" style="edgeStyle=orthogonalEdgeStyle;rounded=0;orthogonalLoop=1;jettySize=auto;html=1;exitX=0;exitY=0.5;exitDx=0;exitDy=0;entryX=0.5;entryY=0;entryDx=0;entryDy=0;entryPerimeter=0;" edge="1" parent="1" source="fn9Ds6wR3YaCidn1l6WM-29" target="fn9Ds6wR3YaCidn1l6WM-31">
          <mxGeometry relative="1" as="geometry" />
        </mxCell>
        <mxCell id="fn9Ds6wR3YaCidn1l6WM-121" style="edgeStyle=orthogonalEdgeStyle;rounded=0;orthogonalLoop=1;jettySize=auto;html=1;exitX=1;exitY=0.5;exitDx=0;exitDy=0;entryX=0.5;entryY=0;entryDx=0;entryDy=0;entryPerimeter=0;" edge="1" parent="1" source="fn9Ds6wR3YaCidn1l6WM-29" target="fn9Ds6wR3YaCidn1l6WM-32">
          <mxGeometry relative="1" as="geometry" />
        </mxCell>
        <mxCell id="fn9Ds6wR3YaCidn1l6WM-127" style="edgeStyle=orthogonalEdgeStyle;rounded=0;orthogonalLoop=1;jettySize=auto;html=1;exitX=0.5;exitY=1;exitDx=0;exitDy=0;" edge="1" parent="1" source="fn9Ds6wR3YaCidn1l6WM-123" target="fn9Ds6wR3YaCidn1l6WM-124">
          <mxGeometry relative="1" as="geometry" />
        </mxCell>
        <mxCell id="fn9Ds6wR3YaCidn1l6WM-128" style="edgeStyle=orthogonalEdgeStyle;rounded=0;orthogonalLoop=1;jettySize=auto;html=1;exitX=0.5;exitY=1;exitDx=0;exitDy=0;entryX=0.5;entryY=0;entryDx=0;entryDy=0;" edge="1" parent="1" source="fn9Ds6wR3YaCidn1l6WM-123" target="fn9Ds6wR3YaCidn1l6WM-125">
          <mxGeometry relative="1" as="geometry" />
        </mxCell>
        <mxCell id="fn9Ds6wR3YaCidn1l6WM-123" value="Select one fold for validation non-repetitively, remaining for training" style="rounded=0;whiteSpace=wrap;html=1;" vertex="1" parent="1">
          <mxGeometry x="-237.28" y="1230" width="198.81" height="50" as="geometry" />
        </mxCell>
        <mxCell id="fn9Ds6wR3YaCidn1l6WM-130" value="" style="edgeStyle=orthogonalEdgeStyle;rounded=0;orthogonalLoop=1;jettySize=auto;html=1;" edge="1" parent="1" source="fn9Ds6wR3YaCidn1l6WM-124" target="fn9Ds6wR3YaCidn1l6WM-129">
          <mxGeometry relative="1" as="geometry" />
        </mxCell>
        <mxCell id="fn9Ds6wR3YaCidn1l6WM-124" value="4 FOLDS" style="shape=parallelogram;perimeter=parallelogramPerimeter;whiteSpace=wrap;html=1;fixedSize=1;" vertex="1" parent="1">
          <mxGeometry x="-350" y="1320" width="120" height="60" as="geometry" />
        </mxCell>
        <mxCell id="fn9Ds6wR3YaCidn1l6WM-133" style="edgeStyle=orthogonalEdgeStyle;rounded=0;orthogonalLoop=1;jettySize=auto;html=1;exitX=0.5;exitY=1;exitDx=0;exitDy=0;entryX=0.5;entryY=0;entryDx=0;entryDy=0;" edge="1" parent="1" source="fn9Ds6wR3YaCidn1l6WM-125" target="fn9Ds6wR3YaCidn1l6WM-132">
          <mxGeometry relative="1" as="geometry" />
        </mxCell>
        <mxCell id="fn9Ds6wR3YaCidn1l6WM-125" value="1 FOLDS" style="shape=parallelogram;perimeter=parallelogramPerimeter;whiteSpace=wrap;html=1;fixedSize=1;" vertex="1" parent="1">
          <mxGeometry x="-61.24" y="1320" width="120" height="60" as="geometry" />
        </mxCell>
        <mxCell id="fn9Ds6wR3YaCidn1l6WM-129" value="Model Training" style="whiteSpace=wrap;html=1;" vertex="1" parent="1">
          <mxGeometry x="-345" y="1470" width="110" height="60" as="geometry" />
        </mxCell>
        <mxCell id="fn9Ds6wR3YaCidn1l6WM-132" value="Model Validation" style="whiteSpace=wrap;html=1;" vertex="1" parent="1">
          <mxGeometry x="-56.24000000000001" y="1470" width="110" height="60" as="geometry" />
        </mxCell>
        <mxCell id="fn9Ds6wR3YaCidn1l6WM-134" value="" style="endArrow=none;html=1;rounded=0;entryX=0;entryY=0.5;entryDx=0;entryDy=0;" edge="1" parent="1" target="fn9Ds6wR3YaCidn1l6WM-132">
          <mxGeometry width="50" height="50" relative="1" as="geometry">
            <mxPoint x="-235" y="1499.23" as="sourcePoint" />
            <mxPoint x="-145" y="1499.23" as="targetPoint" />
          </mxGeometry>
        </mxCell>
        <mxCell id="fn9Ds6wR3YaCidn1l6WM-145" style="edgeStyle=orthogonalEdgeStyle;rounded=0;orthogonalLoop=1;jettySize=auto;html=1;exitX=1;exitY=0.5;exitDx=0;exitDy=0;exitPerimeter=0;entryX=0.5;entryY=1;entryDx=0;entryDy=0;" edge="1" parent="1" source="fn9Ds6wR3YaCidn1l6WM-135" target="fn9Ds6wR3YaCidn1l6WM-139">
          <mxGeometry relative="1" as="geometry" />
        </mxCell>
        <mxCell id="fn9Ds6wR3YaCidn1l6WM-135" value="The Results&amp;nbsp;&lt;div&gt;Aggregation&lt;/div&gt;" style="strokeWidth=2;html=1;shape=mxgraph.flowchart.merge_or_storage;whiteSpace=wrap;labelPosition=center;verticalLabelPosition=middle;align=center;verticalAlign=top;" vertex="1" parent="1">
          <mxGeometry x="-208.38" y="1570" width="141" height="60" as="geometry" />
        </mxCell>
        <mxCell id="fn9Ds6wR3YaCidn1l6WM-136" value="" style="endArrow=classic;html=1;rounded=0;" edge="1" parent="1">
          <mxGeometry width="50" height="50" relative="1" as="geometry">
            <mxPoint x="-138.64" y="1500" as="sourcePoint" />
            <mxPoint x="-138.64" y="1570" as="targetPoint" />
          </mxGeometry>
        </mxCell>
        <mxCell id="fn9Ds6wR3YaCidn1l6WM-138" style="edgeStyle=orthogonalEdgeStyle;rounded=0;orthogonalLoop=1;jettySize=auto;html=1;exitX=0.5;exitY=1;exitDx=0;exitDy=0;entryX=0.25;entryY=0;entryDx=0;entryDy=0;" edge="1" parent="1" source="fn9Ds6wR3YaCidn1l6WM-137" target="fn9Ds6wR3YaCidn1l6WM-129">
          <mxGeometry relative="1" as="geometry" />
        </mxCell>
        <mxCell id="fn9Ds6wR3YaCidn1l6WM-137" value="Hyperparameter&lt;div&gt;Tuning&lt;/div&gt;" style="whiteSpace=wrap;html=1;strokeWidth=2;" vertex="1" parent="1">
          <mxGeometry x="-499.87" y="1325" width="113.75" height="50" as="geometry" />
        </mxCell>
        <mxCell id="fn9Ds6wR3YaCidn1l6WM-166" style="edgeStyle=orthogonalEdgeStyle;rounded=0;orthogonalLoop=1;jettySize=auto;html=1;exitX=0.5;exitY=0;exitDx=0;exitDy=0;entryX=0;entryY=0.5;entryDx=0;entryDy=0;" edge="1" parent="1" source="fn9Ds6wR3YaCidn1l6WM-139" target="fn9Ds6wR3YaCidn1l6WM-143">
          <mxGeometry relative="1" as="geometry" />
        </mxCell>
        <mxCell id="fn9Ds6wR3YaCidn1l6WM-139" value="Check if all 5 folds&#39; results&lt;div&gt;are included&lt;/div&gt;" style="rhombus;whiteSpace=wrap;html=1;verticalAlign=middle;" vertex="1" parent="1">
          <mxGeometry x="108" y="1125" width="200" height="80" as="geometry" />
        </mxCell>
        <mxCell id="fn9Ds6wR3YaCidn1l6WM-141" style="edgeStyle=orthogonalEdgeStyle;rounded=0;orthogonalLoop=1;jettySize=auto;html=1;exitX=0;exitY=0.5;exitDx=0;exitDy=0;entryX=1;entryY=0.5;entryDx=0;entryDy=0;entryPerimeter=0;" edge="1" parent="1" source="fn9Ds6wR3YaCidn1l6WM-139" target="fn9Ds6wR3YaCidn1l6WM-119">
          <mxGeometry relative="1" as="geometry" />
        </mxCell>
        <mxCell id="fn9Ds6wR3YaCidn1l6WM-150" style="edgeStyle=orthogonalEdgeStyle;rounded=0;orthogonalLoop=1;jettySize=auto;html=1;entryX=0.5;entryY=0;entryDx=0;entryDy=0;" edge="1" parent="1" source="fn9Ds6wR3YaCidn1l6WM-143" target="fn9Ds6wR3YaCidn1l6WM-149">
          <mxGeometry relative="1" as="geometry" />
        </mxCell>
        <mxCell id="fn9Ds6wR3YaCidn1l6WM-143" value="Choose the best fold as the final models for Test" style="whiteSpace=wrap;html=1;strokeWidth=2;" vertex="1" parent="1">
          <mxGeometry x="440" y="840" width="210" height="60" as="geometry" />
        </mxCell>
        <mxCell id="fn9Ds6wR3YaCidn1l6WM-147" value="" style="endArrow=none;dashed=1;html=1;rounded=0;" edge="1" parent="1" target="fn9Ds6wR3YaCidn1l6WM-78">
          <mxGeometry width="50" height="50" relative="1" as="geometry">
            <mxPoint x="65.78" y="677.78" as="sourcePoint" />
            <mxPoint x="305.78" y="677.78" as="targetPoint" />
          </mxGeometry>
        </mxCell>
        <mxCell id="fn9Ds6wR3YaCidn1l6WM-78" value="Models" style="shape=document;whiteSpace=wrap;html=1;boundedLbl=1;" vertex="1" parent="1">
          <mxGeometry x="133.78" y="647.78" width="104" height="50" as="geometry" />
        </mxCell>
        <mxCell id="fn9Ds6wR3YaCidn1l6WM-149" value="Prediction/Evaluation models&amp;nbsp;" style="whiteSpace=wrap;html=1;strokeWidth=2;" vertex="1" parent="1">
          <mxGeometry x="443.25" y="983.5" width="203.5" height="59" as="geometry" />
        </mxCell>
        <mxCell id="fn9Ds6wR3YaCidn1l6WM-151" value="Model interpretability" style="swimlane;horizontal=0;whiteSpace=wrap;html=1;" vertex="1" parent="1">
          <mxGeometry x="320" y="1410" width="450" height="200" as="geometry" />
        </mxCell>
        <mxCell id="fn9Ds6wR3YaCidn1l6WM-152" value="Imputation" style="rounded=0;whiteSpace=wrap;html=1;" vertex="1" parent="fn9Ds6wR3YaCidn1l6WM-151">
          <mxGeometry x="50" y="30" width="160" height="60" as="geometry" />
        </mxCell>
        <mxCell id="fn9Ds6wR3YaCidn1l6WM-156" value="Logarithmic&lt;div&gt;Transformation&lt;/div&gt;" style="rounded=0;whiteSpace=wrap;html=1;" vertex="1" parent="fn9Ds6wR3YaCidn1l6WM-151">
          <mxGeometry x="145" y="120" width="160" height="60" as="geometry" />
        </mxCell>
        <mxCell id="fn9Ds6wR3YaCidn1l6WM-155" value="SMOTE" style="rounded=0;whiteSpace=wrap;html=1;" vertex="1" parent="fn9Ds6wR3YaCidn1l6WM-151">
          <mxGeometry x="250" y="30" width="166.5" height="60" as="geometry" />
        </mxCell>
        <mxCell id="fn9Ds6wR3YaCidn1l6WM-158" value="DCA" style="shape=document;whiteSpace=wrap;html=1;boundedLbl=1;verticalAlign=middle;" vertex="1" parent="1">
          <mxGeometry x="320" y="1072.5" width="130" height="55" as="geometry" />
        </mxCell>
        <mxCell id="fn9Ds6wR3YaCidn1l6WM-159" value="ROC curve, AUC, F1-Score" style="shape=document;whiteSpace=wrap;html=1;boundedLbl=1;verticalAlign=middle;" vertex="1" parent="1">
          <mxGeometry x="480" y="1072.5" width="130" height="55" as="geometry" />
        </mxCell>
        <mxCell id="fn9Ds6wR3YaCidn1l6WM-160" value="The calibration curves" style="shape=document;whiteSpace=wrap;html=1;boundedLbl=1;verticalAlign=middle;" vertex="1" parent="1">
          <mxGeometry x="640" y="1072.5" width="127" height="55" as="geometry" />
        </mxCell>
        <mxCell id="fn9Ds6wR3YaCidn1l6WM-161" value="Model interpretability" style="swimlane;horizontal=0;whiteSpace=wrap;html=1;" vertex="1" parent="1">
          <mxGeometry x="320" y="1169" width="450" height="200" as="geometry" />
        </mxCell>
        <mxCell id="fn9Ds6wR3YaCidn1l6WM-162" value="Feature importance" style="rounded=0;whiteSpace=wrap;html=1;" vertex="1" parent="fn9Ds6wR3YaCidn1l6WM-161">
          <mxGeometry x="50" y="30" width="160" height="60" as="geometry" />
        </mxCell>
        <mxCell id="fn9Ds6wR3YaCidn1l6WM-163" value="SHAP dependence plots" style="rounded=0;whiteSpace=wrap;html=1;" vertex="1" parent="fn9Ds6wR3YaCidn1l6WM-161">
          <mxGeometry x="50" y="110" width="160" height="60" as="geometry" />
        </mxCell>
        <mxCell id="fn9Ds6wR3YaCidn1l6WM-164" value="GAM plots" style="rounded=0;whiteSpace=wrap;html=1;" vertex="1" parent="fn9Ds6wR3YaCidn1l6WM-161">
          <mxGeometry x="250" y="110" width="166.5" height="60" as="geometry" />
        </mxCell>
        <mxCell id="fn9Ds6wR3YaCidn1l6WM-165" value="SHAP summary plot" style="rounded=0;whiteSpace=wrap;html=1;" vertex="1" parent="fn9Ds6wR3YaCidn1l6WM-161">
          <mxGeometry x="250" y="30" width="166.5" height="60" as="geometry" />
        </mxCell>
      </root>
    </mxGraphModel>
  </diagram>
</mxfile>
